<svg width="240" height="240" viewBox="0 0 240 240" fill="none" xmlns="http://www.w3.org/2000/svg" role="img" aria-labelledby="title desc">
  <title id="title">밤티 회사원 마스코트</title>
  <desc id="desc">커피와 노트북을 든 직장인 마스코트가 상사핏 테스트를 소개하는 일러스트</desc>
  <defs>
    <linearGradient id="bg" x1="28" y1="20" x2="210" y2="218" gradientUnits="userSpaceOnUse">
      <stop stop-color="#E0F2FE"/>
      <stop offset="0.52" stop-color="#F8FAFC"/>
      <stop offset="1" stop-color="#FEF3C7"/>
    </linearGradient>
    <linearGradient id="suit" x1="80" y1="132" x2="168" y2="212" gradientUnits="userSpaceOnUse">
      <stop stop-color="#3B82F6"/>
      <stop offset="1" stop-color="#1E3A8A"/>
    </linearGradient>
    <filter id="shadow" x="20" y="32" width="200" height="190" filterUnits="userSpaceOnUse" color-interpolation-filters="sRGB">
      <feDropShadow dx="0" dy="14" stdDeviation="12" flood-color="#64748B" flood-opacity="0.22"/>
    </filter>
  </defs>

  <rect x="10" y="10" width="220" height="220" rx="52" fill="url(#bg)"/>
  <circle cx="54" cy="54" r="17" fill="#BAE6FD" opacity="0.85"/>
  <circle cx="194" cy="58" r="10" fill="#FCD34D" opacity="0.9"/>
  <circle cx="206" cy="154" r="16" fill="#BFDBFE" opacity="0.72"/>
  <path d="M36 176C57 165 79 165 101 176C124 188 147 188 170 176C184 169 198 166 212 168" stroke="#93C5FD" stroke-width="8" stroke-linecap="round" opacity="0.45"/>

  <g filter="url(#shadow)">
    <ellipse cx="119" cy="205" rx="57" ry="11" fill="#CBD5E1" opacity="0.65"/>

    <path d="M76 154C76 138.536 88.536 126 104 126H136C151.464 126 164 138.536 164 154V198H76V154Z" fill="url(#suit)"/>
    <path d="M97 128L120 162L143 128V198H97V128Z" fill="#F8FAFC"/>
    <path d="M120 161L130 182L120 194L110 182L120 161Z" fill="#F59E0B"/>
    <path d="M91 142L73 161C68.5 165.8 68.5 173.3 73 178.1L83 188.8" stroke="#1E40AF" stroke-width="14" stroke-linecap="round"/>
    <path d="M149 142L169 161C173.8 165.5 174.1 173 169.7 178L159 190" stroke="#1E3A8A" stroke-width="14" stroke-linecap="round"/>

    <path d="M88 88C88 59.281 111.281 36 140 36H142C147.523 36 152 40.477 152 46V84C152 113.823 127.823 138 98 138H88V88Z" fill="#334155"/>
    <circle cx="120" cy="89" r="47" fill="#FED7AA" stroke="#1E293B" stroke-width="4"/>
    <path d="M78 85C82 56 100 40 126 40C148 40 164 54 166 78C153 70 138 66 120 66C103 66 89 72 78 85Z" fill="#1E293B"/>
    <path d="M82 93C78 85 72 82 67 86C62 90 63 103 72 108" fill="#FDBA74" stroke="#1E293B" stroke-width="4" stroke-linecap="round"/>
    <path d="M158 93C162 85 168 82 173 86C178 90 177 103 168 108" fill="#FDBA74" stroke="#1E293B" stroke-width="4" stroke-linecap="round"/>
    <circle cx="103" cy="94" r="5" fill="#0F172A"/>
    <circle cx="137" cy="94" r="5" fill="#0F172A"/>
    <path d="M109 116C114 121 126 121 131 116" stroke="#B45309" stroke-width="5" stroke-linecap="round"/>
    <circle cx="91" cy="108" r="7" fill="#FCA5A5" opacity="0.48"/>
    <circle cx="150" cy="108" r="7" fill="#FCA5A5" opacity="0.48"/>

    <rect x="86" y="171" width="68" height="40" rx="8" fill="#E2E8F0" stroke="#475569" stroke-width="4"/>
    <path d="M111 190C112.5 184 127.5 184 129 190" stroke="#64748B" stroke-width="4" stroke-linecap="round"/>

    <g transform="rotate(-8 171 151)">
      <rect x="157" y="137" width="31" height="40" rx="8" fill="#FEF3C7" stroke="#A16207" stroke-width="4"/>
      <path d="M164 146H181" stroke="#F59E0B" stroke-width="4" stroke-linecap="round"/>
      <path d="M165 156H180" stroke="#D97706" stroke-width="3" stroke-linecap="round"/>
      <path d="M165 164H176" stroke="#D97706" stroke-width="3" stroke-linecap="round"/>
    </g>
  </g>

  <rect x="31" y="29" width="61" height="30" rx="15" fill="#0EA5E9"/>
  <text x="61.5" y="50" text-anchor="middle" font-size="15" font-family="Arial, Helvetica, sans-serif" font-weight="800" fill="white">BAMTI</text>
</svg>
